<svg width="25" height="29" viewBox="0 0 25 29" fill="none" xmlns="http://www.w3.org/2000/svg">
<path d="M14.8219 28.42H9.3293C4.1151 28.42 0 28.42 0 25.6331V25.0763C0 19.8534 4.1876 15.6049 9.3293 15.6049H14.8248C19.9694 15.6049 24.1541 19.8534 24.1541 25.0763V25.6331C24.1512 28.42 19.8273 28.42 14.8219 28.42ZM9.3264 17.2753C5.075 17.2753 1.6182 20.7727 1.6182 25.0763V25.6331C1.6182 26.7467 6.0726 26.7467 9.3264 26.7467H14.8219C17.516 26.7467 22.5301 26.7467 22.5301 25.6331V25.0763C22.5301 20.7756 19.0733 17.2753 14.8219 17.2753H9.3264ZM11.8001 15.0452C7.714 15.0452 4.3935 11.6696 4.3935 7.5226C4.3935 3.3756 7.7169 0 11.8001 0C15.8833 0 19.2067 3.3727 19.2067 7.5226C19.2067 11.6696 15.8833 15.0452 11.8001 15.0452ZM6.0146 7.5226C6.0146 10.7474 8.6101 13.3748 11.8001 13.3748C14.9901 13.3748 17.5827 10.7503 17.5827 7.5226C17.5827 4.2978 14.9872 1.6733 11.8001 1.6733C8.6101 1.6733 6.0146 4.2949 6.0146 7.5226Z" fill="white"/>
</svg>
