<svg width="32" height="27" viewBox="0 0 32 27" fill="none" xmlns="http://www.w3.org/2000/svg">
<path d="M25.8785 18.7906H11.2964C10.7507 18.7906 10.2691 18.4343 10.1095 17.9123L5.38988 2.48235H1.24117C0.555691 2.48235 0 1.92665 0 1.24117C0 0.555691 0.555691 0 1.24117 0H6.30835C6.85411 0 7.33569 0.356394 7.49527 0.878041L12.2149 16.3083H25.0536L28.8073 7.37505H26.6721C25.9866 7.37505 25.4309 6.81936 25.4309 6.13388C25.4309 5.44839 25.9866 4.8927 26.6721 4.8927H30.6747C31.0903 4.8927 31.4786 5.10087 31.7084 5.44698C31.9382 5.79309 31.9801 6.2314 31.8191 6.61474L27.0225 18.0303C26.8288 18.491 26.3781 18.7906 25.8785 18.7906Z" fill="white"/>
<path d="M10.2413 26.4134C11.4478 26.4134 12.4258 25.4353 12.4258 24.2289C12.4258 23.0225 11.4478 22.0444 10.2413 22.0444C9.0349 22.0444 8.05688 23.0225 8.05688 24.2289C8.05688 25.4353 9.0349 26.4134 10.2413 26.4134Z" fill="white"/>
<path d="M26.4511 26.4134C27.6575 26.4134 28.6355 25.4353 28.6355 24.2289C28.6355 23.0225 27.6575 22.0444 26.4511 22.0444C25.2446 22.0444 24.2666 23.0225 24.2666 24.2289C24.2666 25.4353 25.2446 26.4134 26.4511 26.4134Z" fill="white"/>
<path d="M22.0851 4.80157H18.5244V1.24117C18.5244 0.555691 17.9687 0 17.2832 0C16.5977 0 16.042 0.555691 16.042 1.24117V4.80157H12.4817C11.7962 4.80157 11.2405 5.35726 11.2405 6.04274C11.2405 6.72822 11.7962 7.28391 12.4817 7.28391H16.042V10.8443C16.042 11.5298 16.5977 12.0855 17.2832 12.0855C17.9687 12.0855 18.5244 11.5298 18.5244 10.8443V7.28391H22.0851C22.7706 7.28391 23.3263 6.72822 23.3263 6.04274C23.3263 5.35726 22.7706 4.80157 22.0851 4.80157Z" fill="white"/>
</svg>
