<svg width="45" height="57" viewBox="0 0 45 57" fill="none" xmlns="http://www.w3.org/2000/svg">
<path d="M22.9444 0.00683706C24.2708 0.458083 25.1938 1.91438 26.0621 2.91942C27.2859 4.33469 28.4824 5.76364 29.6652 7.2131C31.8462 9.89322 33.9384 12.6417 35.9143 15.4791C39.702 20.9214 44.1119 27.3551 44.2213 34.2195C44.276 37.5081 43.5376 40.954 42.0539 43.8939C41.4865 45.022 40.584 45.9587 39.2029 45.5416C37.7056 45.0836 37.4526 43.6341 37.9517 42.3351C39.0867 39.3609 40.1532 36.4689 39.8046 33.2076C39.449 29.8779 37.7398 26.7397 36.1057 23.875C34.2187 20.5522 32.0035 17.4208 29.6789 14.392C27.3611 11.37 25.016 8.23866 22.4248 5.44914C21.8299 6.63878 20.6676 7.66434 19.8198 8.68306C18.8421 9.86587 17.8713 11.0624 16.9278 12.2725C15.0886 14.6176 13.3246 17.0174 11.6632 19.4925C8.6139 24.0459 4.96975 29.4404 5.19537 35.1493C5.57824 44.8853 14.3639 52.5838 24.0588 51.7223C25.3784 51.6061 26.6774 51.3326 27.9286 50.9156C29.1934 50.4917 30.4651 49.5755 31.7847 49.3841C34.5674 48.9807 34.793 52.3787 32.7966 53.5683C28.2704 56.2827 22.1581 56.8365 17.1124 55.5169C7.13709 52.912 -0.260604 42.9983 0.894859 32.5854C1.59224 26.3158 5.66029 20.4018 9.18821 15.3492C11.1094 12.6007 13.14 9.92741 15.2527 7.32249C17.3448 4.74492 19.3959 1.98275 22.0624 0C22.3564 0 22.6504 0 22.9375 0L22.9444 0.00683706Z" fill="#AE7196"/>
<path d="M24.5922 32.7018C26.6228 32.7018 32.3932 31.601 32.2633 34.9785C32.2086 36.4621 30.9711 37.0365 29.6858 37.0912C27.9902 37.1595 26.2877 37.0912 24.5922 37.0912C24.5922 38.6637 24.6058 40.2362 24.5922 41.8087C24.5785 43.1283 24.305 44.4752 22.7667 44.735C19.1293 45.364 20.2028 39.0329 20.2028 37.0912C18.5414 37.0912 16.88 37.1253 15.2254 37.0912C13.9058 37.0638 12.6752 36.5715 12.5453 35.0742C12.2444 31.6215 18.22 32.7086 20.2096 32.7086C20.2096 31.0745 20.1481 29.4268 20.2096 27.7859C20.2575 26.5552 20.6267 25.3109 22.0146 25.0579C25.5562 24.4152 24.599 30.1926 24.599 32.1001V32.7086L24.5922 32.7018Z" fill="#AE7196"/>
</svg>
