<svg width="57" height="57" viewBox="0 0 57 57" fill="none" xmlns="http://www.w3.org/2000/svg">
<path d="M21.9493 20.2388C23.0085 19.4247 24.2099 18.8082 25.4903 18.413C27.3162 17.8439 27.2213 17.7807 27.2213 15.8046C27.2213 14.5321 27.6956 12.0818 27.2292 10.8962C26.8736 9.98726 25.8302 9.87661 25.0872 9.26799C21.396 6.27236 23.6408 0.194149 28.2884 0.0044522C33.4102 -0.201053 35.5601 6.76241 31.3631 9.56044C30.0747 10.422 29.7032 10.2165 29.6637 11.8842C29.64 13.2832 29.6716 14.6823 29.6637 16.0734C29.6558 17.8676 29.64 17.836 31.2603 18.3735C32.6277 18.824 33.837 19.4326 35.0068 20.2783C36.1845 19.0216 37.3385 17.7569 38.5557 16.5397C38.9588 16.1366 39.852 15.5596 40.0338 14.9984C40.263 14.2871 39.7572 13.5599 39.6386 12.8564C39.1564 9.98726 41.2273 7.18923 44.1281 6.84145C51.0441 6.00362 51.9531 16.8638 45.0054 17.2274C43.7487 17.2906 42.6105 16.3579 41.5277 16.9507C40.1524 17.7016 38.6348 19.7646 37.5677 20.9028C36.8327 21.6932 36.7852 21.6932 37.0935 22.6179C37.3148 23.2898 37.8681 23.93 38.1289 24.6097C38.7375 26.2143 38.3898 27.1311 40.3421 27.1469C41.7648 27.1628 44.547 27.6607 45.8749 27.1311C47.0052 26.6885 47.2739 25.1472 48.1987 24.3568C50.2853 22.5784 53.4865 22.8392 55.3597 24.8153C59.541 29.2336 53.4944 36.1339 48.5544 32.6403C47.5189 31.9131 47.2344 30.3718 46.2622 29.7553C45.124 29.036 42.5473 29.5972 41.251 29.5893C38.9826 29.5735 38.9747 29.5261 38.3344 31.5416C37.955 32.743 36.6034 34.142 36.9828 35.2486C37.22 35.9283 38.4609 36.7108 38.9905 37.2404C39.6544 37.9044 40.3025 38.6078 40.9823 39.248C42.3418 40.5364 43.0373 39.5484 44.7367 39.5089C47.3055 39.4535 49.4317 41.3347 49.898 43.8324C51.052 49.9343 41.7174 52.2739 39.8125 46.2985C39.5596 45.5159 39.5279 44.686 39.6544 43.8798C39.7651 43.1843 40.2156 42.378 40.0338 41.6667C39.7334 40.5206 37.8444 39.4377 37.0224 38.5999C36.3031 37.8727 35.5996 36.7662 34.5089 36.8689C34.0425 36.9163 33.4418 37.4617 33.0229 37.6672C32.2088 38.0624 31.1813 38.1257 30.4067 38.5288C29.1025 39.2085 29.6716 41.5165 29.6637 42.8523C29.6637 44.362 29.2527 45.7452 30.5015 46.7016C31.7029 47.6184 32.7305 48.069 33.3074 49.5865C33.7975 50.867 33.7422 52.3292 33.1731 53.5781C30.628 59.2137 21.8782 56.1943 23.3483 50.1951C23.6724 48.891 24.4865 47.8081 25.6089 47.0889C26.9763 46.2036 27.2213 45.9507 27.1976 44.2276C27.1818 43.1447 27.743 39.9278 27.1423 38.9951C26.589 38.1257 24.3917 37.9834 23.4511 37.4775C22.8583 37.1535 22.3603 36.5686 21.7201 36.782C21.1115 36.9875 20.2579 38.1889 19.8231 38.6236C18.9537 39.4931 16.7248 40.9948 16.7327 42.2279C16.7406 43.6664 17.5547 44.6228 17.0962 46.1641C16.709 47.4762 15.7447 48.646 14.5432 49.2862C8.89185 52.2976 3.85697 43.8561 9.1922 40.3309C10.2988 39.6037 11.7294 39.3113 13.0257 39.5642C13.5157 39.6591 14.148 40.1017 14.6381 40.0543C15.3969 39.9831 15.9976 39.0583 16.5034 38.5604C17.1516 37.9044 20.0919 35.7545 20.1393 34.7744C20.163 34.3238 19.4833 33.6599 19.2778 33.2805C18.8668 32.5296 18.6138 31.7392 18.3688 30.933C17.8155 29.1151 16.788 29.5735 15.0333 29.5735C13.9425 29.5735 11.5002 29.0834 10.5991 29.7C9.62692 30.3639 9.34238 31.9052 8.26743 32.6561C7.13715 33.4465 5.71442 33.7389 4.37073 33.4702C-1.69167 32.2609 -0.845938 23.1238 5.36664 23.108C6.63919 23.108 7.90384 23.6059 8.84442 24.4675C9.64273 25.2105 9.92728 26.6885 10.9153 27.0995C12.093 27.5817 14.559 27.0995 15.8553 27.0995C17.8867 27.1074 17.9341 27.0679 18.5427 25.1709C18.8747 24.1355 20.2737 22.4915 19.9338 21.5272C19.7362 20.966 18.6059 20.2072 18.1712 19.7725C17.3966 18.99 16.6457 18.1759 15.8474 17.4171C14.5195 16.1682 14.1401 17.0456 12.5119 17.1878C11.2394 17.2985 9.93518 16.9428 8.92346 16.1603C3.38273 11.8921 10.2513 3.49804 15.5471 8.02706C16.4481 8.80165 17.0172 9.90822 17.2148 11.0701C17.3729 11.9949 16.4007 14.6111 16.8986 15.1091C18.5585 16.7768 20.2104 18.4604 21.9335 20.1993L21.9493 20.2388ZM28.4307 36.4342C32.9202 36.2208 36.4533 33.0592 36.4691 28.3563C36.4849 21.4086 27.8062 17.6542 22.7793 22.5626C17.5626 27.6607 21.562 36.0785 28.4307 36.4263V36.4342ZM44.7762 41.8248C43.2586 41.801 41.9229 43.1605 41.8991 44.7255C41.8754 47.2232 45.0529 48.4246 46.7759 46.7332C48.5702 44.9627 47.2897 41.8643 44.7762 41.8248ZM47.6612 11.9949C47.6454 10.4694 46.2543 9.11782 44.7367 9.15734C42.2548 9.21267 41.0455 12.3031 42.7765 14.042C44.5312 15.7888 47.6849 14.5163 47.6612 12.0028V11.9949ZM51.5421 31.2017C53.2177 31.3124 54.4429 29.613 54.4429 28.6013C54.4429 26.1748 51.7713 24.586 49.7716 26.1748C47.6928 27.8188 48.91 31.2017 51.5421 31.2017ZM14.9859 44.7335C15.0175 43.2238 13.6659 41.8564 12.1167 41.8248C9.63483 41.7773 8.37809 44.8678 10.0221 46.6383C11.7294 48.4721 14.9305 47.2627 14.9859 44.7335ZM25.6247 51.4361C25.6168 53.0485 26.8657 54.3448 28.4386 54.3527C30.9204 54.3685 32.1851 51.2069 30.4778 49.4601C28.7389 47.6738 25.6405 48.97 25.6247 51.444V51.4361ZM5.34293 31.1938C6.89212 31.1938 8.18839 29.9292 8.2042 28.3958C8.23581 25.8823 5.10581 24.6809 3.35111 26.3565C1.52528 28.0954 2.84525 31.2017 5.34293 31.2017V31.1938ZM25.6247 5.29226C25.6326 6.88888 26.8657 8.09029 28.5176 8.1061C31.0074 8.12981 32.1139 4.92077 30.4383 3.23721C28.6599 1.45089 25.601 2.81039 25.6168 5.30016L25.6247 5.29226ZM14.9701 12.0107C14.9543 10.5089 13.6027 9.14943 12.1325 9.15734C9.64273 9.15734 8.35437 12.2636 10.1012 14.0183C11.8401 15.7572 14.9938 14.5242 14.9701 12.0107Z" fill="#AE7196"/>
<path d="M28.1698 21.7168C30.1063 21.8591 31.9717 22.689 33.2679 24.1512C34.1927 25.1946 36.0897 28.5459 34.6353 29.7473C32.7305 31.3202 32.3748 26.8228 31.6634 25.9218C30.9995 25.0839 30.0826 24.499 29.0472 24.254C28.2093 24.0485 26.6206 24.1433 26.7708 22.8155C26.8419 22.1594 27.411 21.7247 28.1698 21.7326V21.7168Z" fill="#AE7196"/>
</svg>
