<svg width="28" height="54" viewBox="0 0 28 54" fill="none" xmlns="http://www.w3.org/2000/svg">
<path d="M1.15339 54C0.817538 53.6911 0.417101 53.4217 0.171672 53.0537C-0.157719 52.5608 0.0554166 52.0088 0.242718 51.4896C2.97473 44.0504 5.70674 36.6046 8.43876 29.1588C8.49688 28.9945 8.55501 28.8368 8.63251 28.6134C8.41292 28.6002 8.23854 28.5871 8.05769 28.5871C5.96509 28.5871 3.87894 28.5871 1.78634 28.5871C0.455853 28.5871 -0.209388 27.7262 0.113544 26.4053C2.15448 18.0591 4.19542 9.71961 6.23635 1.38007C6.46886 0.427163 7.01139 0 7.98665 0C14.0707 0 20.1483 0.00657174 26.2259 0C26.8976 0 27.4466 0.203724 27.7954 0.814896C28.1441 1.43264 28.0085 2.01752 27.6662 2.60241C25.1796 6.83461 22.6995 11.0734 20.2193 15.3122C20.116 15.4896 20.0191 15.667 19.877 15.9233C20.4454 15.9233 20.9363 15.9233 21.4271 15.9233C23.0159 15.9233 24.6048 15.9365 26.1936 15.9233C26.9105 15.9168 27.4918 16.1336 27.8277 16.8039C28.17 17.4874 27.9633 18.0854 27.5499 18.6637C21.0784 27.7327 14.6197 36.8018 8.15457 45.8773C6.48178 48.2234 4.82191 50.5761 3.12328 52.9091C2.81972 53.3297 2.36762 53.6386 1.98656 54H1.15985H1.15339ZM7.1664 41.6911C7.1664 41.6911 7.23099 41.724 7.26328 41.7371C12.624 34.2125 17.9847 26.6878 23.397 19.0975C22.1117 19.0975 20.8329 19.0975 19.5476 19.0975C18.6886 19.0975 17.5842 19.2881 16.7446 19.0449C14.5939 18.4206 16.0729 16.2125 16.751 15.0427C19.0632 11.0865 21.4594 7.17634 23.6876 3.17415C20.594 3.17415 17.4938 3.17415 14.4001 3.17415C12.9275 3.17415 11.1191 2.87842 9.6659 3.15444C8.45167 3.38445 8.45813 5.32311 8.19979 6.38773C6.66262 12.736 5.09317 19.0778 3.56247 25.4261C5.73258 25.4261 7.90915 25.3998 10.0857 25.4261C11.8877 25.4458 12.7596 26.195 12.1654 28.0613C10.6928 32.6616 8.83273 37.1632 7.1664 41.6911Z" fill="#AE7196"/>
</svg>
