<svg width="57" height="51" viewBox="0 0 57 51" fill="none" xmlns="http://www.w3.org/2000/svg">
<path d="M37.3633 15.7659C36.3142 19.686 35.2652 23.6061 34.2162 27.5262C33.9914 28.3751 33.4419 31.4463 32.1181 29.7983C31.6685 29.2241 31.5686 27.9007 31.3938 27.2266C31.169 26.3776 30.9442 25.5287 30.6944 24.7047C29.8452 27.8508 28.996 31.0218 28.1468 34.1679C27.922 35.0168 26.7731 41.4587 25.2745 38.7122C24.5501 37.3639 24.3503 35.3414 23.9507 33.8433C23.5261 32.2702 23.1015 30.7222 22.7019 29.1492C21.8027 25.8033 20.9785 22.4575 19.9045 19.1617C19.4799 20.7347 19.0553 22.3077 18.6306 23.8808C18.3809 24.7796 18.1561 27.2016 17.3818 27.8008C16.4826 28.5 14.1848 28.0006 13.1358 28.0006C11.7371 28.0006 10.3633 28.0006 8.96463 28.0006C8.21532 28.0006 5.81755 28.475 5.74262 27.2266C5.66769 25.9282 8.16537 26.3277 8.83974 26.3277C10.3633 26.3277 11.8869 26.3277 13.4105 26.3277C14.3346 26.3277 15.6334 26.6523 16.3078 25.9282C16.9822 25.2041 17.0821 23.2316 17.3568 22.2328C17.7565 20.7347 18.1561 19.2366 18.5557 17.7384C18.7306 17.0643 18.9054 14.917 19.9794 14.942C21.0034 14.942 21.0784 16.7397 21.2532 17.4139C22.0525 20.3851 22.8517 23.3314 23.651 26.3027C24.0756 27.8258 24.4752 29.3739 24.8998 30.897C25.2495 32.2203 25.3994 33.9681 26.1736 35.1167C27.1977 31.3214 28.2217 27.5512 29.2208 23.7559C29.4206 23.0069 29.6954 20.0106 31.1191 20.7846C31.6685 21.0843 31.7435 22.2578 31.8933 22.7572C32.1931 23.8558 32.5178 24.9544 32.8924 26.0281C33.6667 23.1317 34.441 20.2353 35.2152 17.339C35.465 16.3652 36.2393 10.4226 38.0126 11.746C38.662 12.2453 38.7869 14.1929 39.0117 14.9919C39.4363 16.54 39.836 18.088 40.2606 19.6361C40.6102 20.9594 40.9849 22.3077 41.3346 23.6311C41.6343 24.7297 41.5594 26.053 42.7582 26.3277C44.082 26.6273 45.8304 26.3277 47.1791 26.3277C47.9784 26.3277 50.3262 25.8783 50.9257 26.6023C52.5491 28.5 46.3299 28.0256 45.5556 28.0256C44.5066 28.0256 42.1338 28.45 41.1847 27.9756C40.2606 27.5012 40.2356 26.0281 39.9858 25.1292C39.1616 22.0331 38.3623 18.912 37.4881 15.8159C37.4382 15.8159 37.3882 15.8159 37.3633 15.8159V15.7659Z" fill="#AE7196" stroke="#AE7196" stroke-width="1.75" stroke-linecap="round" stroke-linejoin="round"/>
<path d="M3.54474 16.8897C3.51977 19.0121 3.9194 20.8847 4.69368 22.6825C4.76861 22.8573 4.86851 23.032 4.89349 23.2068C4.9934 23.6562 4.94344 24.1057 4.41893 24.2805C3.9194 24.4552 3.56972 24.2056 3.36991 23.7811C2.64558 22.283 2.196 20.7099 1.99618 19.062C1.5466 15.5164 2.17102 12.1706 3.94437 9.09948C6.46703 4.70498 10.2885 2.0583 15.2589 1.23433C19.9545 0.460301 24.2006 1.60886 27.9471 4.60511C28.3967 4.95467 28.6714 4.87977 29.0461 4.55517C31.4189 2.60761 34.1663 1.40911 37.2135 1.13446C43.2828 0.560176 48.3531 2.58264 51.9748 7.55142C55.5964 12.5202 56.046 17.9634 53.6732 23.6313C53.4983 24.0807 53.2236 24.4053 52.7241 24.3554C52.1246 24.3054 51.8249 23.6812 52.1246 23.0071C52.5742 21.9833 52.9239 20.9097 53.1487 19.8111C54.5474 13.0445 50.8508 6.10323 44.3818 3.68127C38.787 1.58389 33.7167 2.65755 29.2459 6.57764C28.6464 7.10198 28.3217 7.12695 27.6973 6.57764C24.825 3.93095 21.4281 2.65755 17.5318 2.68252C10.9629 2.70749 4.94344 7.77614 3.79451 14.2181C3.61967 15.1669 3.49479 16.1157 3.54474 16.9147V16.8897Z" fill="#AE7196" stroke="#AE7196" stroke-width="1.75" stroke-linecap="round" stroke-linejoin="round"/>
<path d="M28.5963 48.0009C28.921 47.6014 29.1958 47.1769 29.5455 46.8273C35.0404 41.3092 40.5353 35.8161 46.0551 30.323C46.1301 30.2481 46.205 30.1732 46.2799 30.0983C46.6546 29.7737 47.0542 29.6988 47.4538 30.0483C47.8285 30.3729 47.8535 30.8473 47.4538 31.2718C46.7795 31.9959 46.0551 32.695 45.3558 33.3942C40.0857 38.6626 34.8156 43.931 29.5455 49.1994C29.4206 49.3242 29.3207 49.449 29.1958 49.5489C28.6213 50.0733 28.2467 50.0982 27.6972 49.5489C25.9488 47.8261 24.2254 46.0783 22.477 44.3554C18.231 40.1107 13.9849 35.8661 9.73886 31.5964C9.589 31.4466 9.43914 31.2968 9.33923 31.122C9.11444 30.7724 9.13941 30.3979 9.43914 30.0983C9.73886 29.7987 10.1135 29.7487 10.4632 29.9984C10.688 30.1482 10.8628 30.348 11.0626 30.5477C16.7074 36.1907 22.3521 41.8336 28.0219 47.4765C28.1468 47.6014 28.2966 47.7262 28.6213 48.0009H28.5963Z" fill="#AE7196" stroke="#AE7196" stroke-width="1.75" stroke-linecap="round" stroke-linejoin="round"/>
</svg>
