<svg width="91" height="91" viewBox="0 0 91 91" fill="none" xmlns="http://www.w3.org/2000/svg">
<circle cx="45.5" cy="45.5" r="45.5" fill="#F9F2F6"/>
<path d="M51.2776 39.229C50.5652 41.8912 49.8528 44.5533 49.1404 47.2155C48.9877 47.792 48.6146 49.8776 47.7156 48.7585C47.4103 48.3685 47.3424 47.4698 47.2237 47.012C47.071 46.4355 46.9184 45.859 46.7488 45.2994C46.1721 47.4359 45.5953 49.5894 45.0186 51.7259C44.866 52.3024 44.0857 56.6771 43.068 54.8119C42.5761 53.8963 42.4404 52.5228 42.1691 51.5054C41.8807 50.4372 41.5923 49.3859 41.321 48.3176C40.7103 46.0455 40.1506 43.7733 39.4212 41.5351C39.1329 42.6033 38.8445 43.6716 38.5562 44.7398C38.3866 45.3503 38.2339 46.995 37.7081 47.402C37.0975 47.8768 35.537 47.5376 34.8246 47.5376C33.8747 47.5376 32.9418 47.5376 31.9919 47.5376C31.4831 47.5376 29.8547 47.8598 29.8039 47.012C29.753 46.1303 31.4492 46.4016 31.9071 46.4016C32.9418 46.4016 33.9765 46.4016 35.0111 46.4016C35.6387 46.4016 36.5208 46.622 36.9787 46.1303C37.4367 45.6385 37.5045 44.299 37.6911 43.6207C37.9625 42.6033 38.2339 41.5859 38.5053 40.5686C38.624 40.1107 38.7428 38.6525 39.4721 38.6694C40.1676 38.6694 40.2184 39.8903 40.3372 40.3481C40.88 42.3659 41.4227 44.3668 41.9655 46.3846C42.2539 47.4189 42.5253 48.4702 42.8136 49.5046C43.0511 50.4033 43.1528 51.5902 43.6787 52.3702C44.3741 49.7928 45.0695 47.2324 45.748 44.655C45.8837 44.1464 46.0703 42.1116 47.0371 42.6372C47.4103 42.8407 47.4612 43.6377 47.5629 43.9768C47.7665 44.7229 47.987 45.469 48.2414 46.1981C48.7672 44.2311 49.293 42.2642 49.8189 40.2973C49.9885 39.636 50.5143 35.6003 51.7186 36.499C52.1596 36.8382 52.2444 38.1608 52.3971 38.7034C52.6854 39.7547 52.9568 40.806 53.2451 41.8572C53.4826 42.7559 53.737 43.6716 53.9745 44.5703C54.178 45.3163 54.1272 46.215 54.9413 46.4016C55.8403 46.605 57.0276 46.4016 57.9436 46.4016C58.4864 46.4016 60.0808 46.0963 60.4879 46.5881C61.5904 47.8768 57.3669 47.5546 56.8411 47.5546C56.1287 47.5546 54.5173 47.8428 53.8727 47.5207C53.2451 47.1985 53.2282 46.1981 53.0586 45.5876C52.4988 43.4851 51.956 41.3655 51.3624 39.2629C51.3285 39.2629 51.2945 39.2629 51.2776 39.2629V39.229Z" fill="#50253D" stroke="#50253D" stroke-width="1.75" stroke-linecap="round" stroke-linejoin="round"/>
<path d="M28.3111 39.992C28.2941 41.4332 28.5655 42.705 29.0913 43.9258C29.1422 44.0445 29.2101 44.1632 29.227 44.2819C29.2949 44.5871 29.261 44.8923 28.9048 45.011C28.5655 45.1297 28.3281 44.9602 28.1924 44.6719C27.7005 43.6545 27.3952 42.5863 27.2595 41.4672C26.9541 39.0594 27.3782 36.7872 28.5825 34.7016C30.2956 31.7172 32.8908 29.9199 36.2662 29.3603C39.455 28.8347 42.3386 29.6147 44.8828 31.6494C45.1881 31.8868 45.3747 31.8359 45.6292 31.6155C47.2405 30.2929 49.1063 29.479 51.1757 29.2925C55.2974 28.9025 58.7407 30.276 61.2001 33.6503C63.6596 37.0246 63.9649 40.7211 62.3535 44.5702C62.2348 44.8754 62.0482 45.0958 61.709 45.0619C61.3019 45.028 61.0984 44.6041 61.3019 44.1463C61.6072 43.4511 61.8447 42.7219 61.9973 41.9759C62.9472 37.3807 60.4369 32.6668 56.0437 31.022C52.2443 29.5977 48.801 30.3268 45.7648 32.989C45.3578 33.3451 45.1373 33.362 44.7132 32.989C42.7626 31.1916 40.4558 30.3268 37.8097 30.3438C33.3488 30.3607 29.261 33.8029 28.4807 38.1776C28.362 38.822 28.2772 39.4663 28.3111 40.0089V39.992Z" fill="#50253D" stroke="#50253D" stroke-width="1.75" stroke-linecap="round" stroke-linejoin="round"/>
<path d="M45.3237 61.1193C45.5442 60.848 45.7308 60.5597 45.9682 60.3224C49.6998 56.575 53.4314 52.8446 57.18 49.1142C57.2309 49.0633 57.2818 49.0125 57.3327 48.9616C57.5871 48.7412 57.8585 48.6903 58.1299 48.9277C58.3843 49.1481 58.4013 49.4703 58.1299 49.7585C57.6719 50.2503 57.18 50.725 56.7051 51.1998C53.1261 54.7776 49.5472 58.3554 45.9682 61.9332C45.8834 62.018 45.8156 62.1028 45.7308 62.1706C45.3406 62.5267 45.0862 62.5436 44.713 62.1706C43.5257 61.0006 42.3553 59.8137 41.168 58.6437C38.2845 55.7611 35.401 52.8785 32.5175 49.979C32.4157 49.8772 32.3139 49.7755 32.2461 49.6568C32.0934 49.4194 32.1104 49.1651 32.3139 48.9616C32.5175 48.7581 32.7719 48.7242 33.0094 48.8938C33.162 48.9955 33.2808 49.1311 33.4164 49.2668C37.2498 53.0989 41.0832 56.9311 44.9336 60.7632C45.0184 60.848 45.1201 60.9328 45.3406 61.1193H45.3237Z" fill="#50253D" stroke="#50253D" stroke-width="1.75" stroke-linecap="round" stroke-linejoin="round"/>
</svg>
