<svg width="26" height="26" viewBox="0 0 26 26" fill="none" xmlns="http://www.w3.org/2000/svg">
<path d="M8.67191 15.3402C8.22895 13.0244 7.71385 10.755 8.16702 8.39267C8.49779 6.66612 9.2606 4.97731 10.4015 3.63178C12.9435 0.635897 17.0155 -0.142828 20.7749 0.0204646C21.9311 0.0705411 23.0837 0.195369 24.2253 0.383337C24.6239 0.44938 25.5433 0.451558 25.8602 0.700488C26.2486 1.00603 25.7335 1.25496 25.4559 1.59461C24.0833 3.27326 23.4837 5.32567 22.8841 7.36646C22.2757 9.43484 21.8597 11.7717 20.5475 13.5382C19.3381 15.1661 17.4897 16.0246 15.5532 16.4767C14.5318 16.7155 13.4885 16.8454 12.4408 16.8933C11.8579 16.9202 11.5745 16.8933 11.1928 17.3527C10.7942 17.8324 10.4438 18.3659 10.0904 18.8782C8.87081 20.6491 7.81221 22.5316 7.1922 24.5964C6.98747 25.2779 6.58967 26.3904 5.63234 25.8621C4.94384 25.4825 4.65679 24.1087 4.30635 23.4279C3.35338 21.5802 2.1221 19.8819 0.669344 18.3927C0.420174 18.1373 0.0252912 17.8629 0.00124849 17.4754C-0.0286227 16.9949 0.484288 16.7162 0.814328 16.4695C1.17788 16.1981 1.55309 15.8279 2.03249 16.0471C2.49003 16.2561 2.93154 16.9245 3.23608 17.3092C3.82549 18.0538 4.33549 18.8695 4.78429 19.7041C5.01888 20.141 5.52378 22.0396 6.23413 21.7653C6.60279 21.623 6.7077 20.972 6.83447 20.6534C7.00933 20.2122 7.18637 19.7724 7.39109 19.3434C7.89672 18.2853 8.53276 17.2939 9.20814 16.3367C10.4132 14.6268 11.6984 12.9692 13.1213 11.4328C14.6848 9.74473 16.3969 8.19526 18.2292 6.80111C18.7072 6.43751 19.1931 6.08407 19.6864 5.74152C20.0259 5.50565 20.8645 5.15802 20.9519 4.71677C21.0881 4.02876 20.3282 4.21165 20.0055 4.40324C19.5516 4.67322 19.1188 5.00198 18.6904 5.3097C14.7904 8.11035 11.6517 11.5148 8.77901 15.3264C8.74331 15.3308 8.70834 15.3352 8.67264 15.3402H8.67191Z" fill="#066D00"/>
</svg>
