<svg width="41" height="41" viewBox="0 0 41 41" fill="none" xmlns="http://www.w3.org/2000/svg">
<path d="M20.4997 12.2725C15.8976 12.2725 12.1323 16.0378 12.1323 20.6398C12.1323 25.2418 15.8976 29.0072 20.4997 29.0072C25.1017 29.0072 28.867 25.2418 28.867 20.6398C28.867 16.0378 25.1017 12.2725 20.4997 12.2725Z" fill="white"/>
<path d="M40.0238 5.71769C39.6054 4.60204 39.0476 3.76531 38.2109 2.78912C37.3741 1.95238 36.5374 1.39456 35.2823 0.97619C34.4456 0.697279 33.051 0.278912 30.6803 0.139456C28.0306 0.139456 27.1939 0 20.5 0C13.8061 0 12.9694 0 10.3197 0.139456C7.80952 0.139456 6.55442 0.697279 5.71769 0.97619C4.60204 1.39456 3.76531 1.95238 2.78912 2.78912C1.95238 3.62585 1.39456 4.46258 0.97619 5.71769C0.697279 6.55442 0.278912 7.94898 0.139456 10.3197C0.139456 12.9694 0 13.8061 0 20.5C0 27.1939 0 28.0306 0.139456 30.6803C0.139456 33.1905 0.697279 34.4456 0.97619 35.2823C1.39456 36.398 1.95238 37.2347 2.78912 38.2109C3.62585 39.1871 4.46258 39.6054 5.71769 40.0238C6.55442 40.3027 7.94898 40.7211 10.3197 40.8605C12.9694 40.8605 13.8061 41 20.5 41C27.1939 41 28.0306 41 30.6803 40.8605C33.1905 40.8605 34.4456 40.3027 35.2823 40.0238C36.398 39.6054 37.2347 39.0476 38.2109 38.2109C39.1871 37.3741 39.6054 36.5374 40.0238 35.2823C40.3027 34.4456 40.7211 33.051 40.8605 30.6803C40.8605 28.0306 41 27.1939 41 20.5C41 13.8061 41 12.9694 40.8605 10.3197C40.8605 7.80952 40.3027 6.55442 40.0238 5.71769M20.5 33.4694C13.3878 33.4694 7.67007 27.7517 7.67007 20.6395C7.67007 13.5272 13.3878 7.80952 20.5 7.80952C27.6122 7.80952 33.3299 13.5272 33.3299 20.6395C33.3299 27.7517 27.6122 33.4694 20.5 33.4694ZM33.8878 10.1803C32.2143 10.1803 30.8197 8.78571 30.8197 7.11224C30.8197 5.43878 32.2143 4.04422 33.8878 4.04422C35.5612 4.04422 36.9558 5.43878 36.9558 7.11224C36.9558 8.78571 35.5612 10.1803 33.8878 10.1803Z" fill="white"/>
</svg>
