<svg width="23" height="19" viewBox="0 0 23 19" fill="none" xmlns="http://www.w3.org/2000/svg">
<path d="M8.9319 10.3992C11.187 8.33121 13.4154 6.23399 15.6804 4.17636C16.7131 3.2383 17.7135 2.31456 19.1297 2.07335C20.5948 1.82391 21.8061 2.32614 23 3.13414C22.9931 3.14968 22.9864 3.16521 22.9795 3.18074C22.4745 3.23891 21.9689 3.16277 21.4638 3.25262C20.9826 3.3382 20.511 3.50632 20.075 3.72835C19.692 3.92327 19.3359 4.17027 19.0134 4.45564C18.8534 4.59727 18.7001 4.74681 18.5434 4.89208C18.4032 5.02183 18.0121 5.27797 17.9693 5.4802C17.929 5.67085 18.139 5.9809 18.2023 6.15206C18.2734 6.34455 18.3388 6.53916 18.3972 6.73561C18.5557 7.26829 18.6618 7.8165 18.7227 8.36928C18.8356 9.39444 18.8121 10.4434 18.5958 11.4524C18.1785 13.3967 17.1651 15.1918 15.7048 16.5307C14.2042 17.9067 12.3643 18.68 10.3635 18.9334C6.32842 19.4444 2.34698 16.965 0.749939 13.2389C-0.841073 9.52632 0.16476 5.05898 3.14791 2.37761C4.85011 0.847482 6.96362 0.0854643 9.21997 0.00566869C10.3611 -0.0348382 11.4534 0.142113 12.531 0.524645C13.6296 0.915095 14.5387 1.53884 15.4767 2.21954C15.1923 2.5238 14.9262 2.80857 14.6514 3.10247C12.0509 0.966262 8.32442 0.534086 5.37291 2.21649C2.62872 3.78043 0.955746 6.93053 1.19711 10.1016C1.42401 13.0861 3.27115 15.8149 5.9813 17.053C9.11872 18.4863 12.8362 17.7794 15.2498 15.3078C17.5234 12.9798 18.2297 9.40967 17.003 6.37988C16.2686 6.97469 15.6268 7.73244 14.9582 8.40218C14.2458 9.11577 13.5311 9.82753 12.8254 10.5478C12.1419 11.2453 11.4664 11.9509 10.7929 12.6581C10.4822 12.9843 10.1679 13.3081 9.86481 13.6419C9.59753 13.9361 9.30133 14.3969 8.89453 14.4986C8.49317 14.5991 8.20329 14.3226 7.93993 14.0607C7.58044 13.7034 7.22548 13.341 6.86961 12.9798C6.19915 12.2988 5.52569 11.6205 4.85342 10.9413C4.52528 10.6097 4.19743 10.2783 3.86959 9.94662C3.55139 9.62469 3.10271 9.29576 2.87792 8.89861C2.66187 8.517 2.84387 8.20512 3.11416 7.92218C3.45345 7.56645 3.8042 7.22108 4.15103 6.87327C4.49123 6.53185 4.84649 6.33115 5.27227 6.66952C5.68991 7.00118 6.05211 7.45042 6.42786 7.83021C7.22126 8.63212 8.01466 9.43434 8.80745 10.2372C8.85325 10.2835 8.8876 10.3416 8.9313 10.3995L8.9319 10.3992Z" fill="white"/>
</svg>
