<svg width="21" height="22" viewBox="0 0 21 22" fill="none" xmlns="http://www.w3.org/2000/svg">
<path id="Vector" d="M18.7444 0.5H2.25556C1.01111 0.5 0 1.51111 0 2.75556V19.2444C0 20.4889 1.01111 21.5 2.25556 21.5H18.7444C19.9889 21.5 21 20.4889 21 19.2444V2.75556C21 1.51111 19.9889 0.5 18.7444 0.5ZM13.3 10.8056C13.3 10.8056 13.0278 10.9611 12.8722 10.9611C12.4056 10.9611 11.9778 10.9611 11.4333 10.9611V18.2333H8.67222V11H6.88333V8.70555H8.67222C8.67222 7.96667 8.67222 7.30556 8.67222 6.60556C8.67222 4.81667 9.8 3.68889 11.5889 3.68889C12.0944 3.68889 12.6 3.68889 13.2222 3.68889V5.98333C12.9111 5.98333 12.6389 5.98333 12.3667 5.98333C11.8222 5.98333 11.4333 6.33333 11.4333 6.83889C11.4333 7.42222 11.4333 8.04444 11.4333 8.70555H14.1556C13.8444 9.44444 13.6111 10.1444 13.3 10.8056Z" fill="white"/>
</svg>
