<svg width="22" height="23" viewBox="0 0 22 23" fill="none" xmlns="http://www.w3.org/2000/svg">
<g id="Group">
<path id="Vector" d="M10.9916 7.37891C8.5717 7.37891 6.5918 9.36269 6.5918 11.7873C6.5918 14.2119 8.5717 16.1957 10.9916 16.1957C13.4115 16.1957 15.3914 14.2119 15.3914 11.7873C15.3914 9.36269 13.4115 7.37891 10.9916 7.37891Z" fill="white"/>
<path id="Vector_2" d="M21.2576 3.92647C21.0376 3.33868 20.7443 2.89784 20.3043 2.38353C19.8643 1.94269 19.4243 1.6488 18.7644 1.42838C18.3244 1.28143 17.5911 1.06101 16.3445 0.987536C14.9512 0.987536 14.5112 0.914062 10.9914 0.914062C7.47157 0.914062 7.03159 0.914062 5.63832 0.987536C4.31839 0.987536 3.65842 1.28143 3.21844 1.42838C2.6318 1.6488 2.19182 1.94269 1.67851 2.38353C1.23853 2.82437 0.945212 3.26521 0.725222 3.92647C0.578563 4.36731 0.358574 5.10204 0.285244 6.35109C0.285244 7.74708 0.211914 8.18792 0.211914 11.7146C0.211914 15.2414 0.211914 15.6822 0.285244 17.0782C0.285244 18.4007 0.578563 19.062 0.725222 19.5028C0.945212 20.0906 1.23853 20.5314 1.67851 21.0458C2.11849 21.5601 2.55847 21.7805 3.21844 22.0009C3.65842 22.1479 4.39172 22.3683 5.63832 22.4418C7.03159 22.4418 7.47157 22.5152 10.9914 22.5152C14.5112 22.5152 14.9512 22.5152 16.3445 22.4418C17.6644 22.4418 18.3244 22.1479 18.7644 22.0009C19.351 21.7805 19.791 21.4866 20.3043 21.0458C20.8176 20.6049 21.0376 20.1641 21.2576 19.5028C21.4042 19.062 21.6242 18.3272 21.6976 17.0782C21.6976 15.6822 21.7709 15.2414 21.7709 11.7146C21.7709 8.18792 21.7709 7.74708 21.6976 6.35109C21.6976 5.02857 21.4042 4.36731 21.2576 3.92647ZM10.9914 18.5477C7.25158 18.5477 4.24505 15.5353 4.24505 11.7881C4.24505 8.04098 7.25158 5.02857 10.9914 5.02857C14.7312 5.02857 17.7377 8.04098 17.7377 11.7881C17.7377 15.5353 14.7312 18.5477 10.9914 18.5477ZM18.0311 6.27762C17.1511 6.27762 16.4178 5.54288 16.4178 4.6612C16.4178 3.77952 17.1511 3.04479 18.0311 3.04479C18.911 3.04479 19.6443 3.77952 19.6443 4.6612C19.6443 5.54288 18.911 6.27762 18.0311 6.27762Z" fill="white"/>
</g>
</svg>
