<svg width="21" height="22" viewBox="0 0 21 22" fill="none" xmlns="http://www.w3.org/2000/svg">
<path id="Vector" d="M18.7444 0.5H2.25555C1.01111 0.5 0 1.51111 0 2.75556V19.2444C0 20.4889 1.01111 21.5 2.25555 21.5H18.7444C19.9889 21.5 21 20.4889 21 19.2444V2.75556C20.9611 1.51111 19.9889 0.5 18.7444 0.5ZM16.6444 9.71667C16.2167 9.71667 15.8278 9.67778 15.4 9.56111C14.7 9.40555 14.0778 9.13333 13.4556 8.74444C13.4556 8.74444 13.3778 8.66667 13.3778 8.70555C13.3389 8.70555 13.3778 8.78333 13.3778 8.82222C13.3778 10.4167 13.3778 12.0111 13.3778 13.6444C13.3778 14.7722 13.0278 15.7833 12.2889 16.6C11.5111 17.4944 10.5389 18.0389 9.33333 18.1944C8.4 18.3111 7.54445 18.1556 6.72778 17.7278C6.61111 17.65 6.45555 17.5722 6.33889 17.4944C6.33889 17.4944 6.26111 17.4167 6.22222 17.3778C6.14444 17.3778 6.06667 17.2611 5.98889 17.2222C5.25 16.6389 4.74445 15.9 4.43333 15.0056C4.31667 14.6944 4.27778 14.3833 4.23889 14.0333C4.23889 13.8 4.23889 13.5667 4.23889 13.3333C4.23889 12.7889 4.39444 12.2833 4.62778 11.7778C4.86111 11.2722 5.17222 10.8056 5.6 10.4167C6.06666 9.95 6.61111 9.6 7.23333 9.36667C7.62222 9.21111 8.01111 9.13333 8.43889 9.09444C8.75 9.09444 9.02222 9.09444 9.33333 9.09444C9.37222 9.09444 9.41111 9.09444 9.41111 9.17222C9.41111 9.32778 9.41111 9.52222 9.41111 9.67778C9.41111 9.67778 9.41111 10.9222 9.41111 11.5056C9.41111 11.5056 9.41111 11.5444 9.41111 11.5833C9.41111 11.6222 9.41111 11.6611 9.33333 11.6611C9.17778 11.6222 9.02222 11.5833 8.86666 11.5833C8.59444 11.5833 8.36111 11.5833 8.12778 11.7C7.35 12.0111 6.84444 12.5556 6.76666 13.4111C6.65 14.2278 7 14.8889 7.66111 15.3556C7.7 15.3944 7.77778 15.4333 7.81667 15.4722C7.97222 15.55 8.12778 15.5889 8.32222 15.6278C8.86667 15.7444 9.37222 15.6278 9.83889 15.3556C10.3833 15.0056 10.6944 14.5389 10.8111 13.9167C10.8111 13.8 10.8111 13.6833 10.8111 13.5667C10.8111 10.3389 10.8111 7.15 10.8111 3.92222C10.8111 3.76667 10.8111 3.80556 10.9278 3.80556C11.6667 3.80556 12.4056 3.80556 13.1444 3.80556H13.1833C13.1833 3.80556 13.2611 3.80556 13.2611 3.88333C13.2611 4.03889 13.3389 4.46667 13.3389 4.50556C13.65 6.13889 15.5556 7.11111 16.1389 7.22778C16.2944 7.22778 16.45 7.26667 16.6056 7.26667C16.6833 7.26667 16.6833 7.26667 16.6833 7.34444C16.6833 7.5 16.6833 9.05556 16.6833 9.6C16.6833 9.71667 16.6833 9.75556 16.5278 9.75556" fill="white"/>
</svg>
